<svg width="280" height="280" viewBox="0 0 280 280" fill="none" xmlns="http://www.w3.org/2000/svg">
<circle cx="140" cy="140" r="140" fill="#BAACE1"/>
<path d="M138.1 25.9938C137.413 26.0151 136.78 25.867 136.201 25.5496C135.622 25.2264 135.153 24.7862 134.793 24.2289C134.44 23.6714 134.252 23.0491 134.229 22.3619C134.206 21.6691 134.353 21.0364 134.67 20.4639C134.992 19.8854 135.432 19.4199 135.989 19.0673C136.545 18.7089 137.167 18.5191 137.854 18.4978C138.547 18.4764 139.18 18.6273 139.754 18.9506C140.333 19.2681 140.799 19.7056 141.153 20.2631C141.512 20.8147 141.703 21.4369 141.725 22.1297C141.748 22.8169 141.598 23.4497 141.276 24.0281C140.96 24.6063 140.523 25.0746 139.966 25.4329C139.415 25.7854 138.793 25.9724 138.1 25.9938Z" fill="black"/>
<path d="M122.253 20.0568L120.564 20.8666C120.398 20.5896 120.18 20.3302 119.911 20.0883C119.646 19.8399 119.313 19.6553 118.909 19.5345C118.506 19.4137 118.016 19.403 117.44 19.5023C116.65 19.6383 116.025 19.9333 115.565 20.3873C115.109 20.8348 114.932 21.3352 115.033 21.8886C115.123 22.3805 115.373 22.7381 115.783 22.9615C116.193 23.1848 116.796 23.3259 117.592 23.3848L119.593 23.5245C120.797 23.6052 121.735 23.8848 122.405 24.3631C123.075 24.8359 123.491 25.5222 123.655 26.4222C123.79 27.16 123.697 27.8563 123.377 28.5109C123.063 29.1646 122.559 29.7243 121.864 30.1899C121.169 30.6555 120.321 30.9746 119.319 31.1473C118.003 31.3739 116.862 31.2765 115.896 30.8548C114.929 30.4332 114.232 29.6944 113.803 28.6383L115.598 27.8447C115.904 28.507 116.337 28.9685 116.899 29.2292C117.466 29.4889 118.155 29.5489 118.967 29.409C119.891 29.2499 120.589 28.9279 121.061 28.443C121.537 27.9516 121.725 27.4292 121.624 26.8758C121.543 26.4286 121.318 26.0811 120.949 25.8333C120.58 25.5799 120.056 25.4337 119.379 25.3946L117.138 25.2619C115.905 25.186 114.958 24.9023 114.297 24.4108C113.64 23.9128 113.231 23.2195 113.069 22.3307C112.937 21.604 113.024 20.926 113.331 20.2966C113.643 19.6662 114.126 19.1305 114.779 18.6894C115.438 18.2473 116.221 17.9481 117.128 17.7918C118.405 17.5719 119.458 17.6787 120.287 18.1123C121.123 18.545 121.778 19.1931 122.253 20.0568Z" fill="black"/>
<path d="M101.57 26.9874L103.859 34.5226L101.925 35.0777L98.1214 22.5516L99.9891 22.0153L100.583 23.9725L100.747 23.9255C100.849 23.2047 101.142 22.5651 101.625 22.0066C102.107 21.4427 102.823 21.0243 103.773 20.7515C104.625 20.5068 105.424 20.4668 106.168 20.6313C106.911 20.7903 107.567 21.1695 108.135 21.7689C108.701 22.3629 109.146 23.1927 109.469 24.2583L111.886 32.2176L109.953 32.7726L107.576 24.9439C107.277 23.9598 106.787 23.2669 106.107 22.8652C105.426 22.4581 104.637 22.3831 103.741 22.6403C103.124 22.8175 102.613 23.109 102.208 23.515C101.808 23.9194 101.547 24.4171 101.423 25.0081C101.3 25.5991 101.349 26.2589 101.57 26.9874Z" fill="black"/>
<path d="M94.2022 38.3133C93.112 38.7695 92.0416 38.9125 90.9911 38.7425C89.9458 38.5703 88.9879 38.1182 88.1173 37.3864C87.252 36.6523 86.5457 35.667 85.9985 34.4304C85.4466 33.1835 85.1929 31.9995 85.2373 30.8787C85.287 29.7556 85.6068 28.7659 86.1968 27.9093C86.7921 27.0506 87.6349 26.3932 88.7251 25.937C89.8153 25.4808 90.8831 25.3388 91.9284 25.5111C92.9789 25.6811 93.938 26.1357 94.8056 26.875C95.6784 27.612 96.3908 28.604 96.9426 29.851C97.4899 31.0876 97.7375 32.2648 97.6856 33.3827C97.6389 34.4983 97.3179 35.4855 96.7226 36.3442C96.1326 37.2007 95.2925 37.8571 94.2022 38.3133ZM93.471 36.661C94.2992 36.3145 94.8874 35.8189 95.2358 35.1744C95.5842 34.5298 95.735 33.8109 95.6884 33.0176C95.6417 32.2243 95.4413 31.4275 95.0872 30.6274C94.7331 29.8272 94.2747 29.1354 93.712 28.5518C93.1494 27.9683 92.5065 27.5753 91.7833 27.373C91.0601 27.1706 90.2844 27.2427 89.4563 27.5892C88.6281 27.9358 88.041 28.4339 87.6949 29.0837C87.3489 29.7334 87.2003 30.4576 87.2493 31.2561C87.2983 32.0546 87.4998 32.8539 87.854 33.654C88.2081 34.4542 88.6653 35.1434 89.2256 35.7218C89.786 36.3002 90.4266 36.6879 91.1475 36.8851C91.8684 37.0822 92.6429 37.0075 93.471 36.661Z" fill="black"/>
<path d="M84.3583 42.5966L78.0566 31.1222L79.8417 30.1953L86.1433 41.6697L84.3583 42.5966ZM77.914 28.7385C77.5661 28.9192 77.2018 28.958 76.8211 28.8548C76.4454 28.7491 76.1674 28.5318 75.9869 28.2031C75.8063 27.8744 75.7753 27.5289 75.8939 27.1665C76.0175 26.8015 76.2532 26.5287 76.6011 26.348C76.9491 26.1674 77.3109 26.1299 77.6865 26.2357C78.0672 26.3388 78.3478 26.5548 78.5283 26.8834C78.7088 27.2121 78.7373 27.559 78.6137 27.924C78.4952 28.2863 78.2619 28.5579 77.914 28.7385Z" fill="black"/>
<path d="M75.0086 32.7221L75.9193 34.163L70.0959 37.6432L69.1852 36.2023L75.0086 32.7221ZM69.2067 32.5368L70.9333 31.505L77.5998 42.052C77.9034 42.5323 78.2018 42.8503 78.495 43.0059C78.7901 43.1538 79.0756 43.2015 79.3515 43.1491C79.6293 43.0889 79.895 42.9831 80.1487 42.8315C80.3389 42.7178 80.4889 42.615 80.5987 42.5229C80.7054 42.426 80.7908 42.3485 80.8549 42.2904L82.1714 43.6078C82.0817 43.721 81.9456 43.8618 81.7632 44.0304C81.5838 44.2038 81.3332 44.3866 81.0113 44.579C80.5236 44.8705 79.9803 45.0529 79.3816 45.1262C78.7877 45.1966 78.2036 45.1122 77.6292 44.8732C77.0596 44.6313 76.5715 44.1885 76.1647 43.5449L69.2067 32.5368Z" fill="black"/>
<path d="M69.5765 45.1725L64.8323 39.0586L66.454 37.8688L74.4794 48.2113L72.8577 49.4011L71.4992 47.6504L71.3893 47.7311C71.5494 48.4378 71.5112 49.1667 71.2746 49.918C71.0345 50.6648 70.5159 51.3305 69.7188 51.9154C69.0591 52.3994 68.363 52.6882 67.6305 52.7818C66.8944 52.871 66.1569 52.7358 65.4179 52.3763C64.6754 52.0124 63.9627 51.3905 63.28 50.5106L58.1806 43.9389L59.8023 42.7491L64.8181 49.2131C65.4033 49.9672 66.0854 50.4108 66.8643 50.5437C67.6478 50.6733 68.3763 50.4911 69.0497 49.997C69.4529 49.7012 69.7845 49.2994 70.0446 48.7916C70.3094 48.2803 70.4218 47.7118 70.3819 47.086C70.3465 46.4567 70.0781 45.8189 69.5765 45.1725Z" fill="black"/>
<path d="M51.8101 43.6173L63.6164 56.473L62.0977 57.7918L50.2914 44.936L51.8101 43.6173Z" fill="black"/>
<path d="M56.2621 63.6361C55.4379 64.4831 54.5078 65.0358 53.4718 65.2943C52.4397 65.5487 51.3771 65.5127 50.2842 65.1863C49.1951 64.8558 48.1531 64.2328 47.1579 63.3172C46.1544 62.3939 45.4507 61.4108 45.047 60.3679C44.6472 59.321 44.5494 58.2895 44.7536 57.2733C44.9617 56.2532 45.4779 55.3196 46.3021 54.4726C47.1263 53.6256 48.0544 53.0749 49.0865 52.8205C50.1225 52.562 51.1872 52.5999 52.2804 52.9342C53.3775 53.2645 54.4279 53.8913 55.4314 54.8145C56.4266 55.7301 57.1219 56.7095 57.5175 57.7526C57.9171 58.7916 58.0128 59.8212 57.8046 60.8414C57.6005 61.8575 57.0863 62.7891 56.2621 63.6361ZM54.9324 62.4127C55.5585 61.7693 55.9043 61.0841 55.9697 60.3572C56.0352 59.6302 55.8891 58.9131 55.5313 58.2057C55.1735 57.4984 54.6726 56.8485 54.0287 56.2561C53.3848 55.6636 52.6877 55.2114 51.9374 54.8993C51.1871 54.5871 50.4384 54.481 49.6914 54.5809C48.9444 54.6809 48.2578 55.0525 47.6318 55.6959C47.0057 56.3393 46.662 57.0264 46.6007 57.7572C46.5394 58.488 46.6898 59.209 47.0517 59.9202C47.4137 60.6314 47.9166 61.2832 48.5606 61.8756C49.2045 62.4681 49.8995 62.9184 50.6456 63.2267C51.3917 63.535 52.1362 63.6372 52.8791 63.5335C53.6219 63.4297 54.3064 63.0561 54.9324 62.4127Z" fill="black"/>
<path d="M42.3792 63.1792L41.6866 64.9103C41.374 64.8225 41.0352 64.7823 40.6704 64.7899C40.3044 64.7896 39.931 64.8825 39.5502 65.0685C39.1694 65.2544 38.8 65.5788 38.442 66.0418C37.9519 66.6755 37.6925 67.3126 37.6639 67.9531C37.6341 68.5857 37.8463 69.068 38.3003 69.4001C38.7039 69.6952 39.1339 69.7845 39.5903 69.6679C40.0466 69.5513 40.5892 69.2444 41.2178 68.7472L42.7919 67.4918C43.7373 66.7336 44.6217 66.3003 45.4452 66.1918C46.2641 66.08 47.0428 66.294 47.7812 66.834C48.3866 67.2767 48.7957 67.8433 49.0085 68.5336C49.2247 69.2195 49.2358 69.9665 49.0417 70.7744C48.8476 71.5824 48.4395 72.3887 47.8173 73.1932C47.0004 74.2494 46.0904 74.9525 45.0873 75.3025C44.0842 75.6526 43.0619 75.5911 42.0204 75.118L42.8031 73.3261C43.4831 73.5982 44.1199 73.6382 44.7136 73.4461C45.3108 73.2495 45.8614 72.8254 46.3655 72.1737C46.939 71.4321 47.2339 70.726 47.25 70.0553C47.265 69.3767 47.0455 68.8714 46.5915 68.5393C46.2246 68.271 45.8199 68.1722 45.3776 68.2427C44.9307 68.31 44.4437 68.559 43.9167 68.9898L42.1691 70.4138C41.2063 71.1944 40.3121 71.6311 39.4864 71.7239C38.6596 71.8089 37.8816 71.5847 37.1523 71.0515C36.5561 70.6155 36.1556 70.0657 35.9507 69.4022C35.7493 68.7343 35.7386 68.0193 35.9186 67.2573C36.1021 66.4909 36.4755 65.7436 37.0386 65.0155C37.8311 63.9908 38.6827 63.3539 39.5932 63.1051C40.5072 62.8517 41.4359 62.8764 42.3792 63.1792Z" fill="black"/>
<path d="M37.6795 88.5497C37.088 89.6638 36.3289 90.4999 35.4023 91.058C34.4733 91.6086 33.4435 91.8765 32.3129 91.8619C31.1799 91.8398 30.0142 91.5279 28.8158 90.9263C27.6175 90.3247 26.6758 89.5787 25.9909 88.6883C25.3037 87.7903 24.9101 86.8236 24.8102 85.7883C24.7079 84.7454 24.9339 83.7021 25.4881 82.6583C25.8078 82.0561 26.2251 81.5124 26.74 81.0272C27.2548 80.542 27.8686 80.1733 28.5814 79.9209C29.2892 79.666 30.0922 79.5829 30.9905 79.6716C31.8888 79.7603 32.8839 80.0787 33.9756 80.6267L34.7373 81.0091L30.0052 89.9217L28.4514 89.1416L32.2243 82.0357C31.5641 81.7043 30.9058 81.5391 30.2493 81.54C29.5955 81.5359 28.9922 81.6971 28.4395 82.0234C27.8894 82.3447 27.4439 82.8266 27.1028 83.4689C26.7272 84.1765 26.5798 84.8779 26.6608 85.5733C26.7394 86.261 26.9873 86.8844 27.4044 87.4434C27.8215 88.0023 28.3525 88.4437 28.9974 88.7674L30.0333 89.2875C30.9168 89.731 31.7457 89.9565 32.52 89.9638C33.2919 89.9636 33.9817 89.7728 34.5893 89.3914C35.1919 89.0075 35.6837 88.4567 36.0647 87.7391C36.3125 87.2724 36.4703 86.8177 36.5382 86.375C36.6035 85.9248 36.575 85.4941 36.4524 85.083C36.3247 84.6694 36.0977 84.2853 35.7714 83.9308L37.1702 82.4592C37.6633 82.9356 38.02 83.4992 38.2404 84.1501C38.4557 84.7984 38.5212 85.4987 38.437 86.2509C38.3477 87.0006 38.0952 87.7668 37.6795 88.5497Z" fill="black"/>
<path d="M24.2038 92.015L24.0221 93.8747C23.6983 93.8755 23.3627 93.9296 23.0153 94.0368C22.6647 94.1368 22.3329 94.3287 22.02 94.6124C21.707 94.896 21.4435 95.3102 21.2294 95.8549C20.9363 96.6005 20.8652 97.2862 21.016 97.9119C21.1635 98.5303 21.501 98.9376 22.0282 99.1335C22.4969 99.3077 22.9336 99.2761 23.3382 99.0386C23.7429 98.8011 24.1771 98.3564 24.6408 97.7046L25.7991 96.0623C26.4936 95.072 27.22 94.4117 27.9786 94.0815C28.7317 93.7493 29.537 93.7426 30.3945 94.0613C31.0975 94.3225 31.647 94.7571 32.0429 95.3648C32.4409 95.9673 32.6594 96.6848 32.6983 97.5174C32.7373 98.3501 32.5707 99.2397 32.1987 100.186C31.7102 101.429 31.0343 102.356 30.1709 102.969C29.3076 103.581 28.3114 103.802 27.1823 103.631L27.4333 101.688C28.1602 101.764 28.7813 101.628 29.2965 101.28C29.8138 100.927 30.2231 100.367 30.5245 99.6004C30.8675 98.7279 30.9534 97.9659 30.7822 97.3144C30.6077 96.6556 30.2569 96.2282 29.7296 96.0323C29.3036 95.8739 28.8885 95.8894 28.4845 96.0786C28.0752 96.2659 27.6781 96.6395 27.2932 97.1994L26.0157 99.0519C25.3108 100.069 24.5758 100.735 23.8109 101.051C23.0426 101.359 22.2351 101.356 21.3883 101.041C20.6959 100.784 20.1593 100.363 19.7784 99.7792C19.3997 99.1899 19.1905 98.5031 19.1509 97.7187C19.1134 96.929 19.263 96.1058 19.5997 95.2492C20.0736 94.0435 20.712 93.196 21.5148 92.7065C22.3197 92.2117 23.216 91.9812 24.2038 92.015Z" fill="black"/>
<path d="M27.8744 112.213L15.2493 108.752L15.7904 106.886L17.6974 107.409L17.7353 107.278C17.1771 106.877 16.7905 106.324 16.5755 105.617C16.3605 104.91 16.3622 104.18 16.5805 103.427C16.6217 103.285 16.6758 103.108 16.743 102.897C16.8102 102.686 16.8651 102.527 16.9077 102.421L18.8804 102.961C18.845 103.022 18.7768 103.166 18.6759 103.391C18.5711 103.61 18.4815 103.848 18.4071 104.104C18.2299 104.715 18.2004 105.296 18.3187 105.847C18.4331 106.391 18.6746 106.864 19.0433 107.265C19.408 107.66 19.8753 107.935 20.4452 108.091L28.4345 110.282L27.8744 112.213Z" fill="black"/>
<path d="M26.4302 119.704C26.2001 120.944 25.7274 121.966 25.0121 122.769C24.2922 123.566 23.3918 124.12 22.3111 124.432C21.2258 124.738 20.0228 124.775 18.7021 124.543C17.3813 124.311 16.2619 123.867 15.3437 123.21C14.4209 122.546 13.7573 121.732 13.3527 120.767C12.9436 119.795 12.8468 118.728 13.0624 117.566C13.1868 116.896 13.4216 116.253 13.7667 115.639C14.1119 115.025 14.586 114.494 15.1892 114.046C15.7868 113.597 16.5265 113.285 17.4082 113.111C18.29 112.937 19.3324 112.956 20.5357 113.167L21.3751 113.314L19.5341 123.235L17.8216 122.935L19.2895 115.025C18.5619 114.897 17.8858 114.928 17.2611 115.119C16.6374 115.303 16.1112 115.632 15.6825 116.105C15.2549 116.572 14.9748 117.163 14.8421 117.878C14.6959 118.666 14.7653 119.382 15.0503 120.026C15.3307 120.664 15.753 121.191 16.3172 121.607C16.8814 122.023 17.5188 122.294 18.2296 122.418L19.3712 122.619C20.345 122.789 21.2015 122.767 21.9409 122.55C22.6757 122.327 23.2753 121.945 23.7399 121.404C24.1988 120.861 24.5024 120.19 24.6506 119.392C24.747 118.872 24.7613 118.39 24.6936 117.945C24.6213 117.494 24.4653 117.089 24.2257 116.73C23.9805 116.37 23.6496 116.066 23.233 115.82L24.1248 114.004C24.7366 114.319 25.2447 114.757 25.6491 115.318C26.0479 115.879 26.3196 116.532 26.4642 117.278C26.6033 118.024 26.592 118.832 26.4302 119.704Z" fill="black"/>
<path d="M11.7551 126.068L24.5048 131.707L24.3711 133.748L10.989 137.77L11.1315 135.593L21.7795 132.632L21.7884 132.496L11.6126 128.245L11.7551 126.068Z" fill="black"/>
<path d="M24.6576 146.396C24.6998 147.224 24.582 147.984 24.3043 148.674C24.0209 149.364 23.5914 149.923 23.0157 150.349C22.4344 150.775 21.7181 151.008 20.8668 151.049C20.1176 151.086 19.5029 150.967 19.0225 150.695C18.5364 150.422 18.1474 150.046 17.8555 149.565C17.5636 149.084 17.3372 148.549 17.1763 147.959C17.0095 147.364 16.8709 146.765 16.7605 146.162C16.6178 145.372 16.5084 144.732 16.4322 144.241C16.35 143.744 16.2378 143.385 16.0957 143.165C15.9533 142.938 15.7204 142.833 15.3969 142.849L15.3288 142.852C14.4889 142.892 13.8479 143.154 13.406 143.636C12.9637 144.112 12.7662 144.813 12.8133 145.738C12.8622 146.697 13.1105 147.438 13.5582 147.963C14.0059 148.487 14.4738 148.849 14.9618 149.047L14.3779 150.987C13.566 150.684 12.9243 150.26 12.4527 149.714C11.9752 149.163 11.6312 148.553 11.4209 147.887C11.2046 147.215 11.0797 146.549 11.0461 145.891C11.0247 145.471 11.0512 144.986 11.1256 144.437C11.194 143.882 11.3685 143.341 11.6489 142.816C11.9291 142.285 12.3698 141.834 12.971 141.464C13.5723 141.094 14.3922 140.883 15.4308 140.833L24.0458 140.418L24.1481 142.427L22.3774 142.512L22.3827 142.614C22.6734 142.737 22.9885 142.949 23.3282 143.252C23.6679 143.554 23.9647 143.963 24.2186 144.48C24.4725 144.997 24.6188 145.635 24.6576 146.396ZM22.8372 146.176C22.7967 145.382 22.6066 144.72 22.2667 144.19C21.9265 143.655 21.5024 143.26 20.9945 143.006C20.4863 142.746 19.9598 142.629 19.415 142.655L17.5762 142.744C17.6827 142.824 17.7859 143.007 17.8857 143.292C17.9797 143.572 18.0674 143.897 18.1489 144.269C18.2244 144.635 18.2939 144.993 18.3572 145.343C18.4146 145.687 18.4629 145.966 18.5023 146.18C18.597 146.699 18.7325 147.182 18.9089 147.628C19.0793 148.069 19.322 148.422 19.6369 148.685C19.9459 148.944 20.3558 149.06 20.8666 149.036C21.5646 149.002 22.0793 148.718 22.4105 148.185C22.7358 147.646 22.878 146.976 22.8372 146.176Z" fill="black"/>
<path d="M11.8941 154.567L13.5822 154.331L14.5765 161.041L12.8884 161.278L11.8941 154.567ZM9.49258 159.757L9.1978 157.767L21.5544 156.036C22.1171 155.958 22.527 155.817 22.7842 155.615C23.035 155.407 23.189 155.168 23.2464 154.896C23.2973 154.619 23.3011 154.335 23.2578 154.042C23.2253 153.823 23.1874 153.645 23.144 153.507C23.0951 153.371 23.0559 153.262 23.0266 153.18L24.756 152.524C24.8266 152.652 24.9051 152.833 24.9916 153.068C25.0836 153.302 25.1572 153.604 25.2121 153.975C25.2954 154.537 25.256 155.105 25.094 155.678C24.9312 156.246 24.6284 156.742 24.1857 157.165C23.7422 157.583 23.1434 157.845 22.3894 157.95L9.49258 159.757Z" fill="black"/>
<path d="M27.5402 165.798C27.8462 167.022 27.8392 168.142 27.5192 169.157C27.1923 170.168 26.5995 171.03 25.7407 171.741C24.875 172.447 23.7897 172.955 22.4848 173.264C21.1799 173.572 19.9705 173.607 18.8567 173.368C17.7359 173.125 16.7895 172.643 16.0174 171.92C15.2384 171.194 14.7055 170.257 14.4188 169.111C14.2534 168.449 14.2007 167.77 14.2606 167.073C14.3205 166.376 14.5331 165.704 14.8984 165.057C15.2582 164.411 15.8052 163.835 16.5395 163.329C17.2737 162.823 18.2353 162.429 19.4241 162.148L20.2535 161.952L22.7014 171.741L21.0095 172.141L19.0577 164.336C18.3389 164.506 17.7333 164.801 17.241 165.221C16.7473 165.635 16.4028 166.143 16.2075 166.744C16.0108 167.339 16.0007 167.989 16.1772 168.695C16.3715 169.472 16.7332 170.099 17.2622 170.575C17.7843 171.047 18.3902 171.362 19.0797 171.52C19.7693 171.678 20.4652 171.674 21.1674 171.508L22.2954 171.242C23.2575 171.014 24.0318 170.656 24.6181 170.167C25.1976 169.674 25.587 169.089 25.7865 168.411C25.9805 167.735 25.9789 167.002 25.7818 166.214C25.6536 165.701 25.466 165.255 25.2188 164.876C24.9648 164.492 24.6533 164.184 24.2845 163.95C23.9101 163.717 23.481 163.57 22.9973 163.51L23.0567 161.499C23.7478 161.546 24.3952 161.746 24.9989 162.099C25.5971 162.454 26.1178 162.944 26.5611 163.569C26.9988 164.195 27.3251 164.938 27.5402 165.798Z" fill="black"/>
<path d="M35.7345 189.501L23.5552 194.3L22.8076 192.507L24.7106 191.757L24.645 191.6C23.8899 191.604 23.2157 191.397 22.6223 190.977C22.0237 190.56 21.5604 189.958 21.2325 189.171C20.9003 188.374 20.8061 187.638 20.9501 186.965C21.0866 186.288 21.4176 185.673 21.9432 185.117L21.8908 184.991C21.1327 184.93 20.4397 184.663 19.8118 184.19C19.1785 183.719 18.6815 183.051 18.3209 182.185C17.8706 181.105 17.8432 180.087 18.2387 179.131C18.629 178.177 19.5404 177.418 20.973 176.854L29.1242 173.641L29.898 175.498L21.7468 178.71C20.8481 179.064 20.3075 179.561 20.1249 180.201C19.9423 180.841 19.9887 181.491 20.2642 182.152C20.6183 183.002 21.1517 183.558 21.8642 183.82C22.5715 184.085 23.319 184.062 24.1066 183.752L32.0358 180.627L32.8228 182.515L24.4813 185.802C23.7888 186.075 23.324 186.518 23.0869 187.13C22.8445 187.745 22.8698 188.404 23.1627 189.106C23.3638 189.589 23.6813 189.989 24.1152 190.306C24.5469 190.618 25.0463 190.812 25.6133 190.888C26.1728 190.961 26.7513 190.879 27.3486 190.644L34.9606 187.644L35.7345 189.501Z" fill="black"/>
<path d="M43.6073 202.106L32.4778 208.999L31.4131 207.373L33.0941 206.332L33.0194 206.218C32.338 206.359 31.6545 206.275 30.9691 205.964C30.2837 205.654 29.7262 205.171 29.2966 204.515C29.2156 204.391 29.1169 204.235 29.0003 204.047C28.8837 203.859 28.7991 203.714 28.7465 203.613L30.4855 202.536C30.5084 202.602 30.5722 202.746 30.6771 202.969C30.7741 203.189 30.8957 203.411 31.042 203.634C31.3907 204.167 31.8155 204.572 32.3165 204.849C32.8096 205.125 33.3335 205.262 33.8884 205.259C34.4353 205.254 34.96 205.096 35.4623 204.785L42.5052 200.424L43.6073 202.106Z" fill="black"/>
<path d="M42.2627 209.352L36.1007 214.034L34.8409 212.466L45.2646 204.547L46.5245 206.114L44.76 207.455L44.8454 207.561C45.567 207.398 46.3161 207.428 47.0928 207.651C47.8649 207.878 48.5607 208.376 49.1799 209.147C49.6924 209.785 50.0054 210.46 50.119 211.173C50.2281 211.889 50.1069 212.608 49.7556 213.332C49.3998 214.059 48.7785 214.759 47.8917 215.433L41.2683 220.465L40.0085 218.897L46.5233 213.947C47.2834 213.37 47.7223 212.701 47.8402 211.941C47.9545 211.177 47.7501 210.469 47.2269 209.818C46.9137 209.428 46.4934 209.109 45.966 208.861C45.435 208.608 44.8487 208.504 44.2073 208.549C43.5624 208.59 42.9142 208.857 42.2627 209.352Z" fill="black"/>
<path d="M57.704 218.265C58.5486 219.092 59.0873 220.012 59.3202 221.027C59.549 222.038 59.4784 223.07 59.1083 224.122C58.7341 225.17 58.0607 226.164 57.0881 227.104C56.1072 228.051 55.0745 228.705 53.9897 229.066C52.9009 229.423 51.8375 229.487 50.7995 229.257C49.7574 229.024 48.8141 228.494 47.9696 227.668C47.125 226.841 46.5883 225.922 46.3595 224.911C46.1266 223.897 46.1993 222.863 46.5775 221.811C46.9517 220.754 47.6293 219.752 48.6101 218.805C49.5827 217.866 50.6114 217.219 51.6961 216.866C52.7768 216.51 53.8381 216.448 54.8802 216.681C55.9182 216.91 56.8595 217.438 57.704 218.265ZM56.4045 219.52C55.7629 218.892 55.0696 218.535 54.3244 218.45C53.5792 218.364 52.8374 218.484 52.099 218.811C51.3606 219.137 50.6768 219.604 50.0474 220.212C49.4181 220.82 48.9311 221.484 48.5865 222.203C48.242 222.923 48.1092 223.648 48.1883 224.377C48.2673 225.106 48.6276 225.784 49.2691 226.412C49.9107 227.04 50.6061 227.395 51.3553 227.477C52.1046 227.559 52.8505 227.434 53.5929 227.104C54.3354 226.774 55.0213 226.305 55.6507 225.697C56.28 225.089 56.765 224.427 57.1054 223.711C57.4459 222.995 57.5746 222.275 57.4915 221.55C57.4083 220.825 57.046 220.148 56.4045 219.52Z" fill="black"/>
<path d="M73.3955 225.468C73.665 225.676 73.8874 225.884 74.0626 226.092C74.2414 226.295 74.355 226.447 74.4035 226.55L72.8761 227.608C72.5689 227.212 72.2562 226.913 71.9381 226.71C71.62 226.507 71.2509 226.433 70.831 226.488C70.4102 226.536 69.8927 226.742 69.2784 227.107L68.334 227.669L63.826 240.814L62.1007 239.479L65.8515 229.195L65.7436 229.112L56.2778 234.971L54.5525 233.636L68.4488 225.431C69.0748 225.061 69.6742 224.817 70.247 224.7C70.8234 224.579 71.3731 224.585 71.8963 224.717C72.415 224.845 72.9147 225.095 73.3955 225.468Z" fill="black"/>
<path d="M72.3077 246.183L73.1767 244.717L79.0951 248.033L78.2261 249.499L72.3077 246.183ZM74.9022 251.231L73.1475 250.248L79.5085 239.514C79.7982 239.025 79.9435 238.618 79.9446 238.293C79.9379 237.97 79.8451 237.704 79.6663 237.493C79.4797 237.284 79.2575 237.107 78.9998 236.963C78.8064 236.855 78.642 236.775 78.5065 236.726C78.3681 236.681 78.2574 236.645 78.1744 236.618L78.7386 234.863C78.8836 234.886 79.0758 234.935 79.315 235.01C79.5571 235.081 79.8417 235.208 80.1689 235.391C80.6645 235.669 81.088 236.046 81.4393 236.523C81.7856 236.997 81.9875 237.537 82.0449 238.142C82.0973 238.744 81.9294 239.373 81.5413 240.028L74.9022 251.231Z" fill="black"/>
<path d="M91.1757 240.869C92.329 241.379 93.2059 242.072 93.8062 242.947C94.3988 243.824 94.7079 244.818 94.7334 245.929C94.7512 247.043 94.4758 248.207 93.9071 249.421C93.3384 250.636 92.6138 251.607 91.7333 252.335C90.8451 253.066 89.8767 253.514 88.828 253.677C87.7718 253.843 86.7034 253.686 85.6227 253.208C84.9993 252.932 84.4319 252.556 83.9204 252.081C83.4089 251.606 83.0123 251.027 82.7304 250.343C82.4461 249.664 82.333 248.881 82.3911 247.994C82.4492 247.106 82.7373 246.109 83.2554 245.003L83.6169 244.231L92.8437 248.317L92.1063 249.891L84.7498 246.634C84.4365 247.303 84.2921 247.959 84.3164 248.604C84.3356 249.246 84.5209 249.828 84.8723 250.35C85.2184 250.87 85.724 251.277 86.389 251.572C87.1216 251.896 87.8397 251.997 88.5435 251.873C89.2397 251.753 89.8644 251.47 90.4176 251.026C90.9709 250.581 91.4005 250.032 91.7065 249.379L92.1981 248.329C92.6174 247.434 92.817 246.606 92.7968 245.845C92.7691 245.087 92.5506 244.422 92.1413 243.849C91.7296 243.282 91.1523 242.834 90.4094 242.505C89.9262 242.291 89.4585 242.165 89.0062 242.126C88.5463 242.09 88.1096 242.145 87.6962 242.291C87.2803 242.443 86.8981 242.689 86.5494 243.032L85.004 241.751C85.4705 241.237 86.0306 240.852 86.6843 240.594C87.3355 240.342 88.0449 240.234 88.8124 240.269C89.5775 240.31 90.3652 240.51 91.1757 240.869Z" fill="black"/>
<path d="M105.983 241.158C106.911 241.445 107.671 241.809 108.261 242.253C108.853 242.691 109.309 243.171 109.63 243.692C109.946 244.205 110.164 244.718 110.284 245.231L108.404 245.828C108.304 245.548 108.169 245.221 107.998 244.847C107.829 244.468 107.549 244.099 107.157 243.741C106.763 243.375 106.188 243.076 105.433 242.844C104.423 242.532 103.511 242.518 102.695 242.802C101.88 243.086 101.303 243.746 100.965 244.783L100.14 247.311L100.303 247.361C100.518 247.178 100.811 246.959 101.181 246.705C101.543 246.454 102.008 246.273 102.576 246.163C103.137 246.056 103.824 246.129 104.639 246.38C105.649 246.691 106.478 247.208 107.126 247.931C107.77 248.653 108.177 249.539 108.348 250.591C108.513 251.641 108.385 252.814 107.962 254.11C107.546 255.385 106.959 256.426 106.2 257.232C105.439 258.044 104.572 258.585 103.6 258.856C102.625 259.132 101.611 259.108 100.558 258.783C99.7436 258.532 99.1415 258.198 98.7518 257.78C98.3549 257.367 98.0843 256.95 97.9401 256.531C97.7887 256.116 97.6777 255.779 97.607 255.519L97.4115 255.459L96.7668 257.436L94.9099 256.863L99.0848 244.061C99.4336 242.991 99.9615 242.197 100.669 241.678C101.372 241.151 102.185 240.858 103.107 240.798C104.025 240.73 104.984 240.85 105.983 241.158ZM103.818 248.017C103.047 247.779 102.338 247.754 101.692 247.941C101.045 248.128 100.476 248.508 99.9839 249.082C99.4921 249.656 99.0964 250.402 98.797 251.32C98.5046 252.217 98.3822 253.05 98.43 253.82C98.4777 254.589 98.7043 255.251 99.1095 255.804C99.5148 256.357 100.108 256.754 100.89 256.995C101.705 257.246 102.45 257.25 103.127 257.007C103.799 256.762 104.383 256.336 104.88 255.728C105.371 255.119 105.754 254.393 106.029 253.55C106.311 252.686 106.425 251.88 106.37 251.131C106.308 250.387 106.07 249.743 105.655 249.199C105.234 248.659 104.622 248.265 103.818 248.017Z" fill="black"/>
<path d="M118.06 252.67C118.739 252.774 119.334 253.033 119.842 253.45C120.35 253.871 120.727 254.388 120.974 255.001C121.216 255.612 121.282 256.257 121.173 256.936C121.063 257.62 120.798 258.215 120.377 258.72C119.95 259.23 119.429 259.608 118.814 259.853C118.199 260.105 117.551 260.179 116.871 260.076C116.186 259.972 115.592 259.709 115.09 259.288C114.581 258.872 114.206 258.358 113.965 257.747C113.717 257.14 113.648 256.495 113.758 255.81C113.867 255.132 114.135 254.537 114.562 254.027C114.983 253.517 115.502 253.136 116.118 252.884C116.727 252.638 117.374 252.566 118.06 252.67Z" fill="black"/>
<path d="M137.796 250.969C139.057 250.976 140.144 251.26 141.055 251.821C141.961 252.388 142.659 253.176 143.148 254.184C143.631 255.198 143.869 256.376 143.861 257.716C143.854 259.057 143.603 260.238 143.109 261.258C142.609 262.284 141.917 263.081 141.034 263.651C140.144 264.226 139.108 264.51 137.927 264.504C137.245 264.501 136.572 264.383 135.909 264.153C135.245 263.922 134.642 263.55 134.099 263.036C133.557 262.527 133.126 261.854 132.806 261.017C132.487 260.181 132.331 259.151 132.337 257.93L132.342 257.078L142.433 257.129L142.423 258.868L134.378 258.827C134.374 259.565 134.518 260.225 134.81 260.806C135.097 261.387 135.509 261.847 136.047 262.185C136.579 262.523 137.209 262.694 137.937 262.697C138.738 262.701 139.432 262.506 140.019 262.111C140.601 261.722 141.05 261.213 141.366 260.584C141.682 259.955 141.842 259.28 141.845 258.558L141.852 257.399C141.857 256.411 141.691 255.572 141.354 254.882C141.011 254.199 140.534 253.676 139.922 253.315C139.311 252.96 138.599 252.78 137.786 252.776C137.258 252.773 136.78 252.845 136.353 252.99C135.92 253.141 135.547 253.367 135.233 253.666C134.919 253.971 134.675 254.351 134.502 254.805L132.562 254.249C132.77 253.591 133.117 253.013 133.603 252.516C134.088 252.024 134.687 251.641 135.399 251.366C136.11 251.097 136.91 250.965 137.796 250.969Z" fill="black"/>
<path d="M147.159 261.251L148.9 260.556C149.046 260.844 149.245 261.117 149.496 261.377C149.743 261.643 150.063 261.849 150.456 261.997C150.849 262.145 151.337 262.188 151.919 262.128C152.716 262.045 153.36 261.793 153.851 261.371C154.337 260.955 154.549 260.467 154.488 259.908C154.434 259.411 154.21 259.037 153.816 258.787C153.423 258.536 152.832 258.355 152.042 258.242L150.057 257.968C148.862 257.807 147.947 257.465 147.313 256.942C146.679 256.425 146.312 255.712 146.212 254.803C146.13 254.057 146.272 253.368 146.637 252.736C146.997 252.105 147.539 251.58 148.265 251.163C148.991 250.745 149.86 250.483 150.871 250.378C152.199 250.241 153.33 250.415 154.264 250.901C155.197 251.386 155.84 252.171 156.193 253.254L154.347 253.925C154.089 253.244 153.689 252.754 153.148 252.456C152.601 252.158 151.918 252.052 151.098 252.137C150.166 252.234 149.447 252.508 148.942 252.96C148.432 253.419 148.208 253.927 148.269 254.487C148.319 254.938 148.519 255.3 148.869 255.573C149.219 255.85 149.73 256.032 150.403 256.116L152.629 256.399C153.852 256.558 154.776 256.905 155.401 257.44C156.02 257.982 156.379 258.701 156.478 259.599C156.558 260.333 156.423 261.004 156.072 261.612C155.716 262.22 155.197 262.722 154.514 263.119C153.826 263.516 153.024 263.761 152.109 263.856C150.82 263.99 149.778 263.812 148.981 263.324C148.179 262.836 147.571 262.145 147.159 261.251Z" fill="black"/>
<path d="M163.698 248.669L166.324 261.494L164.416 261.863L164.019 259.926L163.885 259.952C163.781 260.632 163.462 261.228 162.93 261.742C162.397 262.256 161.746 262.588 160.976 262.737C160.831 262.765 160.649 262.797 160.43 262.834C160.212 262.87 160.045 262.894 159.932 262.904L159.521 260.9C159.592 260.904 159.75 260.9 159.997 260.887C160.239 260.88 160.491 260.852 160.754 260.801C161.378 260.68 161.909 260.441 162.347 260.084C162.78 259.735 163.092 259.304 163.283 258.792C163.469 258.287 163.503 257.746 163.385 257.167L161.724 249.051L163.698 248.669Z" fill="black"/>
<path d="M171.293 246.487C172.503 246.132 173.63 246.092 174.672 246.366C175.711 246.648 176.617 247.2 177.389 248.021C178.157 248.85 178.74 249.904 179.137 251.185C179.534 252.466 179.65 253.663 179.484 254.778C179.314 255.899 178.891 256.858 178.216 257.654C177.537 258.456 176.63 259.024 175.496 259.356C174.842 259.548 174.162 259.629 173.457 259.599C172.752 259.569 172.062 259.386 171.387 259.051C170.714 258.722 170.098 258.204 169.54 257.497C168.982 256.79 168.522 255.854 168.16 254.687L167.908 253.873L177.591 251.034L178.106 252.695L170.386 254.958C170.604 255.664 170.941 256.251 171.396 256.722C171.846 257.194 172.38 257.514 172.997 257.683C173.609 257.853 174.263 257.835 174.961 257.631C175.73 257.405 176.336 257.02 176.78 256.476C177.22 255.938 177.497 255.325 177.61 254.634C177.723 253.944 177.673 253.254 177.459 252.565L177.116 251.458C176.823 250.514 176.412 249.761 175.881 249.2C175.346 248.646 174.732 248.285 174.037 248.116C173.344 247.952 172.607 247.984 171.828 248.213C171.32 248.361 170.884 248.566 170.519 248.827C170.15 249.095 169.86 249.417 169.65 249.792C169.441 250.173 169.322 250.605 169.293 251.087L167.266 251.112C167.268 250.425 167.426 249.775 167.741 249.162C168.058 248.554 168.516 248.017 169.116 247.551C169.716 247.091 170.442 246.736 171.293 246.487Z" fill="black"/>
<path d="M183.961 256.581L183.111 242.743L184.996 241.951L194.774 252.04L192.762 252.885L185.196 244.751L185.07 244.804L185.973 255.736L183.961 256.581Z" fill="black"/>
<path d="M196.409 236.025C197.134 235.621 197.87 235.389 198.62 235.329C199.372 235.273 200.073 235.406 200.724 235.726C201.377 236.051 201.92 236.581 202.353 237.315C202.734 237.961 202.914 238.556 202.893 239.101C202.874 239.651 202.717 240.162 202.421 240.633C202.125 241.104 201.75 241.54 201.295 241.944C200.839 242.354 200.365 242.742 199.874 243.107C199.232 243.582 198.707 243.963 198.302 244.247C197.894 244.54 197.624 244.798 197.492 245.021C197.355 245.247 197.369 245.5 197.533 245.779L197.568 245.837C197.995 246.562 198.528 247.012 199.167 247.189C199.8 247.369 200.522 247.234 201.33 246.782C202.169 246.315 202.72 245.767 202.982 245.139C203.245 244.511 203.352 243.938 203.303 243.419L205.317 243.076C205.423 243.927 205.341 244.682 205.07 245.341C204.797 246.007 204.41 246.58 203.909 247.061C203.406 247.55 202.866 247.955 202.291 248.276C201.923 248.481 201.476 248.672 200.947 248.85C200.417 249.035 199.851 249.12 199.248 249.105C198.641 249.093 198.031 248.903 197.418 248.535C196.806 248.168 196.236 247.536 195.707 246.641L191.325 239.212L193.082 238.232L193.982 239.759L194.072 239.709C194.046 239.398 194.09 239.026 194.204 238.592C194.317 238.158 194.547 237.714 194.893 237.261C195.239 236.808 195.744 236.396 196.409 236.025ZM197.059 237.731C196.364 238.118 195.858 238.58 195.541 239.114C195.218 239.652 195.061 240.202 195.069 240.763C195.072 241.327 195.212 241.844 195.489 242.314L196.425 243.899C196.447 243.77 196.563 243.598 196.773 243.383C196.981 243.176 197.232 242.955 197.528 242.718C197.822 242.489 198.111 242.269 198.395 242.059C198.678 241.856 198.906 241.689 199.08 241.56C199.502 241.246 199.873 240.913 200.192 240.559C200.509 240.213 200.712 239.843 200.802 239.448C200.89 239.061 200.804 238.647 200.545 238.206C200.19 237.604 199.695 237.275 199.062 237.219C198.426 237.17 197.759 237.341 197.059 237.731Z" fill="black"/>
<path d="M209.841 243.626L208.84 242.246L214.434 238.409L215.435 239.788L209.841 243.626ZM215.646 243.445L213.988 244.583L206.661 234.484C206.327 234.024 206.009 233.726 205.706 233.589C205.402 233.46 205.114 233.43 204.842 233.5C204.568 233.577 204.31 233.7 204.066 233.867C203.883 233.992 203.74 234.104 203.636 234.203C203.536 234.306 203.455 234.389 203.395 234.451L201.997 233.22C202.079 233.101 202.206 232.952 202.378 232.773C202.546 232.589 202.784 232.39 203.094 232.178C203.562 231.857 204.093 231.641 204.686 231.53C205.275 231.422 205.864 231.47 206.452 231.672C207.036 231.877 207.552 232.288 207.999 232.905L215.646 243.445Z" fill="black"/>
<path d="M212.88 224.873C213.848 224.064 214.867 223.575 215.938 223.406C217.008 223.244 218.066 223.382 219.111 223.819C220.155 224.263 221.122 224.988 222.01 225.993C222.898 226.998 223.493 228.04 223.795 229.12C224.096 230.207 224.099 231.248 223.803 232.243C223.507 233.246 222.905 234.126 221.998 234.884C221.475 235.321 220.883 235.667 220.222 235.923C219.562 236.179 218.853 236.29 218.096 236.257C217.342 236.228 216.565 236.004 215.763 235.586C214.962 235.167 214.156 234.5 213.347 233.585L212.783 232.946L220.527 226.477L221.678 227.78L215.504 232.938C215.993 233.491 216.543 233.891 217.153 234.135C217.76 234.384 218.381 234.461 219.017 234.366C219.649 234.275 220.244 233.996 220.802 233.53C221.417 233.016 221.817 232.423 222.003 231.749C222.188 231.084 222.192 230.415 222.014 229.742C221.836 229.069 221.508 228.462 221.03 227.921L220.263 227.053C219.608 226.312 218.923 225.793 218.206 225.496C217.488 225.208 216.776 225.126 216.068 225.251C215.363 225.381 214.7 225.706 214.076 226.227C213.671 226.565 213.353 226.927 213.124 227.311C212.894 227.703 212.759 228.111 212.719 228.537C212.682 228.968 212.749 229.408 212.919 229.858L211.067 230.695C210.787 230.07 210.667 229.415 210.707 228.731C210.75 228.051 210.952 227.379 211.313 226.715C211.677 226.055 212.199 225.441 212.88 224.873Z" fill="black"/>
<path d="M230.887 207.202L240.894 215.642L239.601 217.092L238.037 215.773L237.923 215.9C238.276 216.555 238.398 217.233 238.289 217.936C238.184 218.642 237.847 219.313 237.28 219.95C236.705 220.594 236.077 221.004 235.395 221.18C234.714 221.363 233.999 221.35 233.249 221.141L233.158 221.243C233.452 221.929 233.528 222.651 233.385 223.407C233.247 224.168 232.866 224.898 232.242 225.597C231.463 226.471 230.546 226.949 229.49 227.032C228.439 227.119 227.325 226.666 226.147 225.673L219.45 220.025L220.789 218.524L227.486 224.172C228.225 224.795 228.928 225.043 229.597 224.916C230.266 224.789 230.839 224.458 231.315 223.924C231.928 223.237 232.19 222.525 232.101 221.789C232.016 221.056 231.65 220.417 231.003 219.871L224.488 214.377L225.849 212.85L232.703 218.63C233.272 219.11 233.891 219.317 234.56 219.249C235.233 219.185 235.823 218.869 236.33 218.301C236.678 217.911 236.897 217.457 236.987 216.938C237.072 216.424 237.019 215.903 236.827 215.377C236.635 214.858 236.293 214.392 235.802 213.978L229.548 208.703L230.887 207.202Z" fill="black"/>
<path d="M247.316 196.122L240.402 192.354L241.406 190.611L252.9 196.876L251.93 198.56L250.134 197.581L250.049 197.728C250.479 198.312 250.716 198.972 250.758 199.706C250.805 200.443 250.581 201.24 250.088 202.097C249.645 202.865 249.098 203.45 248.447 203.851C247.8 204.256 247.063 204.443 246.235 204.412C245.412 204.384 244.512 204.103 243.534 203.571L236.23 199.59L237.235 197.847L244.419 201.763C245.322 202.255 246.159 202.407 246.929 202.219C247.705 202.034 248.325 201.537 248.791 200.73C249.111 200.174 249.276 199.61 249.284 199.039C249.289 198.472 249.13 197.936 248.805 197.429C248.481 196.922 247.985 196.487 247.316 196.122Z" fill="black"/>
<path d="M243.714 185.764L255.681 191.071L254.827 192.892L242.86 187.585L243.714 185.764ZM257.241 192.882C257.408 192.527 257.673 192.275 258.038 192.126C258.4 191.982 258.753 191.986 259.096 192.138C259.439 192.29 259.673 192.546 259.799 192.907C259.922 193.272 259.901 193.632 259.734 193.987C259.568 194.342 259.303 194.592 258.941 194.735C258.576 194.884 258.222 194.883 257.88 194.731C257.537 194.579 257.304 194.32 257.18 193.955C257.054 193.594 257.075 193.237 257.241 192.882Z" fill="black"/>
<path d="M252.02 161.203L264.695 164.475L264.183 166.349L262.203 165.838L262.158 166.003C262.763 166.44 263.172 167.001 263.386 167.684C263.605 168.368 263.603 169.122 263.378 169.944C263.151 170.777 262.772 171.421 262.241 171.877C261.714 172.34 261.07 172.64 260.308 172.777L260.272 172.909C260.839 173.401 261.226 174.021 261.435 174.767C261.649 175.514 261.632 176.34 261.385 177.245C261.077 178.374 260.47 179.206 259.564 179.741C258.664 180.277 257.468 180.353 255.977 179.968L247.494 177.778L248.024 175.838L256.507 178.027C257.442 178.269 258.18 178.187 258.721 177.781C259.262 177.374 259.627 176.826 259.815 176.135C260.058 175.248 259.976 174.49 259.57 173.863C259.17 173.237 258.559 172.819 257.74 172.607L249.488 170.477L250.026 168.504L258.708 170.745C259.428 170.931 260.072 170.848 260.64 170.495C261.212 170.145 261.599 169.602 261.8 168.867C261.937 168.363 261.931 167.857 261.781 167.349C261.63 166.846 261.352 166.399 260.946 166.007C260.545 165.622 260.034 165.349 259.412 165.188L251.49 163.143L252.02 161.203Z" fill="black"/>
<path d="M252.709 153.564C252.855 152.312 253.258 151.261 253.917 150.414C254.582 149.572 255.442 148.961 256.499 148.581C257.561 148.206 258.758 148.093 260.091 148.24C261.424 148.387 262.57 148.759 263.53 149.356C264.495 149.96 265.212 150.731 265.68 151.668C266.154 152.612 266.322 153.671 266.185 154.845C266.106 155.522 265.915 156.179 265.612 156.814C265.309 157.449 264.872 158.01 264.3 158.496C263.734 158.982 263.018 159.34 262.15 159.57C261.282 159.8 260.241 159.849 259.027 159.715L258.18 159.621L259.349 149.598L261.077 149.789L260.145 157.78C260.879 157.861 261.552 157.787 262.162 157.557C262.771 157.332 263.274 156.971 263.67 156.471C264.065 155.977 264.305 155.369 264.389 154.647C264.482 153.851 264.364 153.141 264.037 152.516C263.714 151.897 263.258 151.398 262.667 151.019C262.076 150.639 261.423 150.41 260.705 150.331L259.553 150.204C258.57 150.095 257.718 150.173 256.995 150.436C256.277 150.706 255.705 151.125 255.278 151.696C254.856 152.267 254.599 152.956 254.505 153.763C254.443 154.287 254.461 154.77 254.559 155.209C254.661 155.655 254.844 156.049 255.107 156.393C255.376 156.737 255.726 157.018 256.158 157.237L255.391 159.108C254.76 158.832 254.224 158.427 253.782 157.893C253.347 157.359 253.032 156.724 252.838 155.988C252.649 155.253 252.606 154.445 252.709 153.564Z" fill="black"/>
<path d="M271.166 145.316L253.719 144.802L253.782 142.792L271.229 143.306L271.166 145.316Z" fill="black"/>
<path d="M253.344 129.099L270.772 128.144L270.888 130.152L264.455 130.504L264.465 130.675C264.7 130.81 265.001 130.998 265.368 131.24C265.741 131.487 266.081 131.849 266.388 132.328C266.7 132.811 266.881 133.478 266.93 134.329C266.994 135.43 266.775 136.415 266.274 137.284C265.772 138.154 265.03 138.852 264.047 139.378C263.065 139.904 261.887 140.205 260.514 140.28C259.13 140.356 257.916 140.186 256.873 139.771C255.836 139.356 255.015 138.746 254.411 137.943C253.812 137.139 253.482 136.193 253.419 135.104C253.37 134.264 253.47 133.584 253.719 133.064C253.973 132.544 254.271 132.138 254.613 131.846C254.96 131.554 255.249 131.327 255.478 131.167L255.464 130.929L253.456 131.039L253.344 129.099ZM259.994 130.715C259.007 130.769 258.144 130.961 257.406 131.292C256.674 131.622 256.112 132.077 255.718 132.656C255.331 133.235 255.16 133.927 255.207 134.733C255.255 135.572 255.517 136.26 255.992 136.798C256.473 137.34 257.099 137.733 257.87 137.975C258.647 138.223 259.501 138.321 260.432 138.27C261.351 138.22 262.171 138.033 262.892 137.709C263.619 137.39 264.182 136.935 264.58 136.344C264.984 135.759 265.162 135.041 265.112 134.19C265.065 133.373 264.818 132.698 264.372 132.165C263.931 131.631 263.334 131.243 262.58 131C261.832 130.756 260.97 130.661 259.994 130.715Z" fill="black"/>
<path d="M251.765 120.835C251.549 119.673 251.636 118.605 252.027 117.631C252.419 116.662 253.067 115.844 253.971 115.177C254.877 114.516 255.995 114.068 257.327 113.833C258.67 113.597 259.888 113.633 260.98 113.943C262.073 114.258 262.978 114.803 263.694 115.576C264.411 116.356 264.878 117.327 265.094 118.488C265.311 119.65 265.223 120.716 264.831 121.685C264.441 122.659 263.79 123.477 262.879 124.14C261.968 124.808 260.842 125.26 259.499 125.496C258.167 125.731 256.957 125.69 255.87 125.374C254.783 125.063 253.881 124.518 253.164 123.739C252.448 122.965 251.982 121.997 251.765 120.835ZM253.545 120.522C253.709 121.404 254.071 122.091 254.63 122.581C255.19 123.071 255.864 123.387 256.654 123.531C257.443 123.675 258.269 123.671 259.131 123.519C259.992 123.367 260.77 123.089 261.463 122.684C262.157 122.28 262.68 121.752 263.032 121.101C263.385 120.451 263.479 119.684 263.315 118.802C263.151 117.919 262.786 117.233 262.221 116.744C261.656 116.255 260.976 115.94 260.181 115.797C259.386 115.654 258.557 115.659 257.695 115.811C256.834 115.962 256.059 116.24 255.371 116.644C254.684 117.047 254.166 117.574 253.819 118.224C253.472 118.873 253.38 119.639 253.545 120.522Z" fill="black"/>
<path d="M248.732 107.476L261.35 103.99L261.895 105.855L259.989 106.382L260.027 106.513C260.719 106.569 261.346 106.844 261.91 107.336C262.475 107.829 262.867 108.451 263.087 109.204C263.128 109.346 263.177 109.524 263.234 109.738C263.29 109.952 263.329 110.115 263.35 110.227L261.379 110.772C261.376 110.702 261.357 110.545 261.321 110.302C261.292 110.062 261.241 109.814 261.166 109.558C260.987 108.947 260.699 108.437 260.302 108.028C259.911 107.623 259.451 107.344 258.92 107.19C258.397 107.04 257.85 107.043 257.281 107.201L249.296 109.407L248.732 107.476Z" fill="black"/>
<path d="M239.236 96.3746L256.042 89.9258L256.772 91.7263L254.831 92.4714L254.921 92.6925C255.188 92.748 255.536 92.8337 255.963 92.9496C256.398 93.0688 256.838 93.3076 257.284 93.6659C257.737 94.0274 258.124 94.603 258.444 95.3927C258.859 96.4141 258.967 97.4131 258.769 98.3897C258.57 99.3663 258.088 100.254 257.321 101.054C256.554 101.853 255.529 102.499 254.245 102.992C252.951 103.488 251.74 103.7 250.613 103.628C249.491 103.553 248.514 103.228 247.68 102.654C246.851 102.078 246.232 101.284 245.821 100.273C245.505 99.4939 245.382 98.8202 245.452 98.2519C245.527 97.6815 245.68 97.2059 245.912 96.8249C246.149 96.442 246.351 96.1393 246.518 95.9169L246.454 95.759L239.993 98.2383L239.236 96.3746ZM250.674 94.103C249.751 94.4571 248.991 94.9039 248.395 95.4431C247.804 95.9803 247.414 96.5832 247.225 97.2518C247.042 97.9184 247.102 98.6255 247.406 99.3731C247.722 100.152 248.193 100.723 248.818 101.086C249.451 101.451 250.173 101.63 250.986 101.623C251.805 101.618 252.65 101.449 253.52 101.116C254.38 100.786 255.101 100.357 255.683 99.8291C256.274 99.3045 256.664 98.7016 256.853 98.0204C257.05 97.3425 256.988 96.6086 256.668 95.8189C256.36 95.0608 255.908 94.4981 255.311 94.1307C254.72 93.7613 254.026 93.5773 253.229 93.5787C252.438 93.5781 251.587 93.7528 250.674 94.103Z" fill="black"/>
<path d="M236.592 81.6883L247.956 75.1897L248.962 76.8524L247.246 77.8339L247.316 77.9506C248.002 77.8333 248.682 77.9419 249.355 78.2764C250.029 78.6109 250.569 79.1136 250.974 79.7845C251.051 79.911 251.144 80.0704 251.254 80.2628C251.363 80.4552 251.443 80.6029 251.492 80.7058L249.716 81.7212C249.696 81.6544 249.637 81.508 249.54 81.282C249.451 81.0581 249.338 80.8318 249.199 80.6033C248.87 80.0588 248.46 79.6389 247.969 79.3437C247.487 79.0505 246.968 78.8955 246.414 78.8789C245.867 78.8642 245.338 79.0036 244.825 79.2969L237.633 83.4094L236.592 81.6883Z" fill="black"/>
<path d="M238.201 74.5004L244.524 70.0385L245.727 71.6504L235.031 79.1983L233.828 77.5864L235.639 76.3088L235.557 76.1995C234.83 76.3369 234.083 76.2804 233.315 76.0299C232.552 75.7762 231.874 75.2532 231.283 74.4609C230.793 73.8052 230.505 73.1192 230.416 72.4028C230.333 71.6831 230.48 70.9679 230.856 70.2572C231.238 69.5432 231.883 68.8651 232.793 68.223L239.589 63.4269L240.792 65.0388L234.108 69.7563C233.328 70.3067 232.865 70.9597 232.721 71.7153C232.579 72.4755 232.758 73.1902 233.258 73.8596C233.557 74.2603 233.966 74.5941 234.484 74.861C235.005 75.1325 235.587 75.2571 236.23 75.2347C236.876 75.2169 237.533 74.9721 238.201 74.5004Z" fill="black"/>
<path d="M223.098 65.053C222.283 64.1968 221.778 63.2575 221.581 62.2351C221.388 61.2167 221.495 60.1882 221.902 59.1496C222.313 58.115 223.022 57.1455 224.027 56.2411C225.041 55.329 226.096 54.7119 227.193 54.3897C228.293 54.0717 229.358 54.0456 230.388 54.3115C231.421 54.5815 232.345 55.1446 233.159 56.0007C233.974 56.8569 234.478 57.7941 234.671 58.8124C234.867 59.8349 234.758 60.8653 234.343 61.9036C233.931 62.9461 233.219 63.9234 232.205 64.8354C231.2 65.7399 230.149 66.3493 229.052 66.6635C227.96 66.9818 226.897 67.006 225.864 66.736C224.835 66.4701 223.913 65.9091 223.098 65.053ZM224.441 63.8445C225.06 64.4948 225.74 64.876 226.482 64.988C227.224 65.1 227.969 65.0061 228.719 64.7061C229.468 64.4062 230.168 63.9636 230.819 63.3783C231.469 62.7931 231.979 62.1469 232.349 61.4398C232.719 60.7327 232.877 60.0134 232.824 59.2819C232.771 58.5505 232.435 57.8595 231.816 57.2092C231.197 56.5589 230.515 56.1796 229.769 56.0714C229.023 55.9632 228.273 56.0609 227.52 56.3647C226.766 56.6684 226.064 57.1129 225.413 57.6982C224.763 58.2834 224.255 58.9277 223.889 59.631C223.524 60.3343 223.37 61.0498 223.427 61.7775C223.484 62.5051 223.822 63.1941 224.441 63.8445Z" fill="black"/>
<path d="M207.678 57.307C207.416 57.0889 207.201 56.8731 207.033 56.6597C206.862 56.4505 206.754 56.294 206.709 56.1902L208.273 55.1865C208.566 55.5929 208.868 55.9032 209.179 56.1175C209.489 56.3317 209.856 56.4185 210.277 56.3778C210.7 56.345 211.224 56.1572 211.851 55.8144L212.815 55.2865L217.788 42.3117L219.465 43.7072L215.351 53.8497L215.456 53.9369L225.125 48.4171L226.802 49.8127L212.621 57.5189C211.982 57.8665 211.374 58.0886 210.798 58.1851C210.217 58.2858 209.668 58.2609 209.15 58.1105C208.636 57.9637 208.145 57.6958 207.678 57.307Z" fill="black"/>
<path d="M197.813 45.2128C196.721 44.5818 195.924 43.7999 195.422 42.8671C194.928 41.9323 194.729 40.9122 194.826 39.8068C194.93 38.6993 195.332 37.5735 196.031 36.4293C196.73 35.2851 197.558 34.3989 198.514 33.7707C199.479 33.1404 200.492 32.8008 201.553 32.7517C202.623 32.7006 203.67 32.9707 204.693 33.5619C205.283 33.903 205.807 34.3368 206.264 34.8633C206.721 35.3898 207.053 36.0077 207.258 36.7169C207.467 37.4213 207.494 38.2108 207.338 39.0855C207.183 39.9602 206.787 40.9188 206.15 41.9612L205.706 42.6884L196.969 37.6402L197.875 36.1566L204.841 40.1815C205.227 39.5513 205.442 38.915 205.489 38.2726C205.54 37.6331 205.419 37.0354 205.127 36.4793C204.839 35.926 204.38 35.4675 203.751 35.1037C203.057 34.7029 202.353 34.5258 201.639 34.5724C200.933 34.617 200.28 34.8302 199.681 35.212C199.081 35.5938 198.593 36.0926 198.217 36.7083L197.613 37.6974C197.097 38.541 196.808 39.3414 196.744 40.0985C196.689 40.8537 196.834 41.5375 197.178 42.15C197.526 42.7575 198.051 43.2646 198.755 43.6711C199.213 43.9354 199.664 44.1111 200.11 44.1983C200.564 44.2834 201.005 44.2757 201.433 44.175C201.863 44.0696 202.271 43.8655 202.655 43.563L204.053 45.0005C203.533 45.4606 202.933 45.7831 202.254 45.9682C201.578 46.1484 200.86 46.1796 200.1 46.0618C199.343 45.9392 198.58 45.6562 197.813 45.2128Z" fill="black"/>
<path d="M196.818 29.3911L186.902 39.3473L185.026 38.5304L186.066 24.7074L188.067 25.5788L187.014 36.4966L187.139 36.551L194.818 28.5197L196.818 29.3911Z" fill="black"/>
<path d="M184.25 19.5227L178.265 35.9189L176.363 35.2627L182.349 18.8665L184.25 19.5227Z" fill="black"/>
<path d="M168.212 33.163C167.067 32.8704 166.135 32.3421 165.418 31.5783C164.706 30.8158 164.24 29.8845 164.019 28.7844C163.804 27.6857 163.873 26.4836 164.226 25.1782C164.581 23.8618 165.131 22.7738 165.876 21.9144C166.625 21.0564 167.503 20.4655 168.509 20.142C169.52 19.8198 170.598 19.805 171.743 20.0976C172.888 20.3902 173.816 20.9177 174.528 21.6801C175.246 22.444 175.711 23.378 175.925 24.4822C176.144 25.5878 176.076 26.7989 175.72 28.1153C175.367 29.4207 174.817 30.4997 174.068 31.3523C173.325 32.2062 172.449 32.7943 171.438 33.1165C170.432 33.44 169.357 33.4555 168.212 33.163ZM168.683 31.4187C169.553 31.641 170.329 31.6017 171.01 31.3009C171.692 31.0001 172.265 30.5221 172.731 29.867C173.196 29.2119 173.543 28.462 173.771 27.6173C173.999 26.7726 174.077 25.951 174.005 25.1526C173.932 24.3542 173.676 23.6583 173.236 23.0651C172.796 22.4718 172.141 22.0641 171.271 21.8418C170.401 21.6196 169.625 21.6616 168.942 21.9679C168.259 22.2742 167.684 22.7576 167.217 23.4182C166.75 24.0788 166.403 24.8314 166.174 25.6761C165.946 26.5208 165.869 27.3397 165.943 28.1326C166.017 28.9256 166.275 29.6159 166.716 30.2037C167.158 30.7914 167.813 31.1965 168.683 31.4187Z" fill="black"/>
<path d="M160.095 17.7701C160.111 16.9013 159.791 16.1837 159.134 15.6175C158.478 15.0512 157.625 14.7002 156.577 14.5644C155.811 14.4652 155.123 14.5022 154.515 14.6754C153.912 14.8494 153.42 15.1323 153.039 15.5242C152.664 15.9168 152.439 16.3889 152.364 16.9406C152.3 17.4022 152.356 17.8132 152.53 18.1738C152.711 18.5295 152.961 18.8398 153.28 19.1045C153.6 19.3637 153.942 19.5885 154.306 19.7788C154.671 19.9636 155.008 20.1189 155.317 20.245L157.011 20.9455C157.445 21.1221 157.924 21.3503 158.448 21.6301C158.977 21.9107 159.471 22.2639 159.929 22.6899C160.393 23.1109 160.753 23.6216 161.009 24.222C161.265 24.8223 161.338 25.5278 161.227 26.3384C161.099 27.2729 160.738 28.0855 160.144 28.7764C159.557 29.4679 158.764 29.9755 157.768 30.299C156.777 30.6233 155.617 30.6994 154.287 30.5271C153.048 30.3666 152.002 30.0277 151.149 29.5105C150.302 28.9941 149.669 28.3448 149.248 27.5628C148.834 26.7814 148.657 25.9135 148.719 24.9591L150.883 25.2393C150.85 25.8996 150.995 26.4685 151.32 26.9459C151.651 27.4185 152.098 27.7972 152.661 28.0821C153.231 28.3621 153.859 28.5467 154.547 28.6357C155.347 28.7393 156.083 28.7029 156.755 28.5264C157.428 28.3443 157.982 28.0437 158.418 27.6247C158.855 27.2 159.117 26.6724 159.203 26.0419C159.282 25.4677 159.185 24.9797 158.913 24.5778C158.641 24.176 158.259 23.8285 157.766 23.5355C157.272 23.2424 156.733 22.9721 156.148 22.7244L154.101 21.8405C152.802 21.277 151.807 20.5838 151.117 19.7611C150.427 18.9384 150.162 17.9444 150.321 16.7791C150.454 15.8109 150.832 15.0005 151.454 14.3478C152.083 13.6902 152.871 13.2193 153.816 12.9349C154.767 12.6456 155.795 12.5725 156.899 12.7156C158.015 12.8601 158.979 13.1883 159.792 13.7004C160.606 14.2068 161.22 14.8363 161.633 15.5887C162.051 16.3419 162.215 17.1566 162.124 18.0328L160.095 17.7701Z" fill="black"/>
<path d="M169.046 141.792H118.179C116.441 141.792 115 140.351 115 138.613C115 136.875 116.441 135.434 118.179 135.434H169.046C170.784 135.434 172.225 136.875 172.225 138.613C172.225 140.351 170.784 141.792 169.046 141.792Z" fill="#3D3D3D"/>
<path d="M143.612 167.225C141.874 167.225 140.433 165.784 140.433 164.046V113.179C140.433 111.441 141.874 110 143.612 110C145.35 110 146.791 111.441 146.791 113.179V164.046C146.791 165.784 145.35 167.225 143.612 167.225Z" fill="#3D3D3D"/>
<rect x="91.5" y="86.5" width="105" height="105" stroke="#3D3D3D" stroke-width="5" stroke-linecap="square" stroke-linejoin="round" stroke-dasharray="50 50"/>
</svg>
